<?xml version="1.0" encoding="utf-8"?>
<!-- Generator: Adobe Illustrator 16.0.0, SVG Export Plug-In . SVG Version: 6.00 Build 0)  -->
<!DOCTYPE svg PUBLIC "-//W3C//DTD SVG 1.1//EN" "http://www.w3.org/Graphics/SVG/1.1/DTD/svg11.dtd">
<svg version="1.1" id="Layer_1" xmlns="http://www.w3.org/2000/svg" xmlns:xlink="http://www.w3.org/1999/xlink" x="0px" y="0px"
	 width="1024px" height="1024px" viewBox="0 0 1024 1024" enable-background="new 0 0 1024 1024" xml:space="preserve">
<g xmlns:svg="http://www.w3.org/2000/svg" xmlns:sodipodi="http://sodipodi.sourceforge.net/DTD/sodipodi-0.dtd" xmlns:rdf="http://www.w3.org/1999/02/22-rdf-syntax-ns#" xmlns:dc="http://purl.org/dc/elements/1.1/" xmlns:cc="http://creativecommons.org/ns#" xmlns:inkscape="http://www.inkscape.org/namespaces/inkscape" inkscape:version="0.48.1 r9760" sodipodi:docname="twitter_bootstrap_logo.svg">
	<path fill="#00A4C5" d="M1024,853.333C1024,947.2,947.2,1024,853.333,1024H170.667C76.8,1024,0,947.2,0,853.333V170.667
		C0,76.8,76.8,0,170.667,0h682.667C947.2,0,1024,76.8,1024,170.667V853.333z"/>
</g>
<g>
	<path fill-rule="evenodd" clip-rule="evenodd" fill="#FDFDFD" d="M568.42,980.94c-148.649,15.924-276.452-29.216-383.702-132.493
		C121.819,787.876,80.245,714.267,59.045,629.69c-6.626-26.438-9.157-53.897-13.563-80.889c4.164-0.238,8.329-0.664,12.495-0.68
		c82.418-0.325,164.835-0.612,247.252-0.847c4.154-0.014,8.312,0.486,12.468,0.75c6.908,31.86,19.343,61.179,40.033,86.66
		c31.677,39.017,71.991,62.941,121.774,71.647c43.374,7.585,84.394,1.247,123.006-18.916c54.863-28.65,89.281-73.595,102.98-134.154
		c0.382-1.695,1.181-3.298,1.68-4.657c1.28-0.893,2.243-2.159,3.205-2.156c49.412,0.161,98.824,0.427,148.234,0.683
		c-3.42,23.711-6.505,47.473-10.331,71.112c-7.825,48.387-24.299,94.121-45.29,138.104c-17.543,36.752-39.996,70.462-65.556,102.445
		c-19.112,23.909-41.118,44.52-64.757,62.999c-29.259,22.873-62.247,40.239-97.4,53.025
		C572.602,975.79,570.688,978.852,568.42,980.94z"/>
	<path fill-rule="evenodd" clip-rule="evenodd" fill="#FD1C1C" d="M855.355,476.219c-48.897,0-97.797,0-147.057,0
		c-25.292-98.109-87.438-156.541-188.039-162.555c-77.568-4.639-168.793,34.987-203.884,159.071c-88.513,0-177.236,0-265.979,0
		C57.016,254.318,279.419,7.847,582.732,51.453c2.44,1.94,4.61,4.485,7.365,5.718c18.77,8.382,38.54,14.936,56.343,24.992
		c42.972,24.259,81.221,54.439,111.556,94.114c21.641,28.304,40.18,58.571,53.461,91.296
		c15.592,38.422,27.673,78.035,34.132,119.538C850.205,416.772,855.975,446.071,855.355,476.219z"/>
	<path fill-rule="evenodd" clip-rule="evenodd" fill="#DBDBDB" d="M568.42,980.94c2.268-2.089,4.182-5.15,6.855-6.123
		c35.153-12.786,68.142-30.152,97.4-53.025c23.639-18.479,45.645-39.09,64.757-62.999c25.56-31.983,48.013-65.693,65.556-102.445
		c20.991-43.982,37.465-89.717,45.29-138.104c3.826-23.64,6.911-47.401,10.331-71.112c10.664-0.47,21.328-1.278,31.996-1.337
		c26.27-0.145,52.542,0.021,78.811,0.154c4.646,0.023,9.29,0.51,16.048,0.909c-3.109,21.493-5.088,42.129-9.19,62.335
		c-16.936,83.381-54.219,156.884-110.913,220.123c-43.495,48.52-95.451,86.049-154.763,113.291
		c-40.303,18.51-82.586,30.27-126.222,37.44C579.15,980.91,573.743,980.669,568.42,980.94z"/>
	<path fill-rule="evenodd" clip-rule="evenodd" fill="#FDFDFD" d="M644.836,508.287c4.1,68.102-52.914,131.465-121.727,136.171
		c-76.802,5.256-139.245-52.581-143.653-125.447c-4.372-72.278,52.292-139.805,131.958-140.888
		C581.186,377.178,645.05,434.926,644.836,508.287z M446.124,510.825c-0.25,39.794,30.11,70.899,69.342,71.042
		c39.221,0.143,70.813-31.073,70.836-69.992c0.025-38.565-32.059-70.615-70.607-70.538
		C477.802,441.411,446.362,472.815,446.124,510.825z"/>
	<path fill-rule="evenodd" clip-rule="evenodd" fill="#DD1818" d="M855.355,476.219c0.619-30.148-5.15-59.446-9.767-89.107
		c-6.459-41.503-18.54-81.116-34.132-119.538c-13.281-32.726-31.82-62.993-53.461-91.296
		c-30.335-39.675-68.584-69.855-111.556-94.114c-17.803-10.056-37.573-16.61-56.343-24.992c-2.755-1.232-4.925-3.778-7.365-5.718
		c36.116,3.74,70.506,14.169,104.196,27.166c47.572,18.349,91.154,43.985,128.875,78.006c25.539,23.034,49.627,48.306,70.894,75.303
		c32.098,40.747,55.188,86.967,70.894,136.606c9.471,29.935,16.964,60.322,20.035,91.671c0.458,4.681,1.389,9.317,2.419,16.042
		c-20.914,1.495-41.553,0.49-62.123,0.543C897.066,476.846,876.209,476.429,855.355,476.219z"/>
</g>
</svg>
